# xmcd
#
# Track frame offsets: 
#        150
#        12375
#        25476
#        37997
#        50978
#        63634
#        76490
#        88114
#        100174
#        112852
#        124620
#        137632
#        149226
#        161744
#        174161
#        186463
#        198978
#        211968
#        224026
#        236434
#
# Disc length: 3300 seconds
#
# Revision: 0
# Processed by: cddbd v1.5.2PL0 Copyright (c) Steve Scherf et al.
# Submitted via: ExactAudioCopyFreeDBPlugin 1.0
#
DISCID=2d0ce214
DTITLE=Roy Acuff - Famous Country Music Makers
DYEAR=2007
DGENRE=Country
TTITLE0=Blue Eyes Crying In The Rain
TTITLE1=Great Speckle Bird
TTITLE2=Wreck On The Highway
TTITLE3=Wabash Cannonball
TTITLE4=The Precious Jewel
TTITLE5=NIght Train To Memphis
TTITLE6=Low and Lonely
TTITLE7=I'll Forgive You, But I Can't Forget
TTITLE8=We Live In Two Different Worlds
TTITLE9=Waltz Of The Wind
TTITLE10=Tennessee Waltz
TTITLE11=Fireball Mail
TTITLE12=The Prodigal Son
TTITLE13=Freight Traine Blues
TTITLE14=I Saw The Light
TTITLE15=Pins and Needles
TTITLE16=(Our Own) Jole Blon
TTITLE17=(I'm Dying) A Sinner's Death
TTITLE18=Be Honest With Me
TTITLE19=Write Me, Sweetheart
EXTD=
EXTT0=
EXTT1=
EXTT2=
EXTT3=
EXTT4=
EXTT5=
EXTT6=
EXTT7=
EXTT8=
EXTT9=
EXTT10=
EXTT11=
EXTT12=
EXTT13=
EXTT14=
EXTT15=
EXTT16=
EXTT17=
EXTT18=
EXTT19=
PLAYORDER=
